<svg xmlns="http://www.w3.org/2000/svg" xmlns:xlink="http://www.w3.org/1999/xlink" width="300" zoomAndPan="magnify" viewBox="0 0 224.87999 225" height="300" preserveAspectRatio="xMidYMid meet" version="1.0"><defs><g/><clipPath id="f19f411bc9"><path d="M 0 0.0585938 L 224.761719 0.0585938 L 224.761719 224.9375 L 0 224.9375 Z M 0 0.0585938 " clip-rule="nonzero"/></clipPath><clipPath id="0595f5a0c6"><path d="M 183.46875 110.730469 L 187 110.730469 L 187 114.328125 L 183.46875 114.328125 Z M 183.46875 110.730469 " clip-rule="nonzero"/></clipPath><clipPath id="c614701fca"><path d="M 9 97.914062 L 35.699219 97.914062 L 35.699219 122.648438 L 9 122.648438 Z M 9 97.914062 " clip-rule="nonzero"/></clipPath><clipPath id="f388653661"><path d="M 200.113281 93.953125 L 216.144531 93.953125 L 216.144531 115.648438 L 200.113281 115.648438 Z M 200.113281 93.953125 " clip-rule="nonzero"/></clipPath><clipPath id="6a1f118006"><path d="M 187.007812 110.226562 L 203.277344 110.226562 L 203.277344 119.957031 L 187.007812 119.957031 Z M 187.007812 110.226562 " clip-rule="nonzero"/></clipPath><clipPath id="cb6749d321"><path d="M 14 102 L 31 102 L 31 117 L 14 117 Z M 14 102 " clip-rule="nonzero"/></clipPath><clipPath id="ffff2a2c27"><path d="M 11.347656 109.28125 L 29.761719 100.882812 L 33.121094 108.246094 L 14.707031 116.648438 Z M 11.347656 109.28125 " clip-rule="nonzero"/></clipPath><clipPath id="902b59d339"><path d="M 11.347656 109.28125 L 29.761719 100.882812 L 33.121094 108.246094 L 14.707031 116.648438 Z M 11.347656 109.28125 " clip-rule="nonzero"/></clipPath><clipPath id="87eec70621"><path d="M 11.347656 109.28125 L 29.761719 100.882812 L 33.121094 108.246094 L 14.707031 116.648438 Z M 11.347656 109.28125 " clip-rule="nonzero"/></clipPath></defs><g clip-path="url(#f19f411bc9)"><path fill="#ffffff" d="M 0 0.0585938 L 224.878906 0.0585938 L 224.878906 224.941406 L 0 224.941406 Z M 0 0.0585938 " fill-opacity="1" fill-rule="nonzero"/><path fill="#000000" d="M 0 0.0585938 L 224.878906 0.0585938 L 224.878906 224.941406 L 0 224.941406 Z M 0 0.0585938 " fill-opacity="1" fill-rule="nonzero"/></g><g clip-path="url(#0595f5a0c6)"><path fill="#9cff1e" d="M 187 112.011719 L 187 112.980469 C 185.828125 113.324219 185.652344 113.933594 185.652344 114.265625 L 184.644531 114.265625 C 184.644531 113.988281 184.707031 113.484375 185.09375 113 L 183.472656 113 L 183.472656 111.992188 L 185.09375 111.992188 C 184.707031 111.507812 184.644531 111.007812 184.644531 110.730469 L 185.652344 110.730469 C 185.652344 111.0625 185.828125 111.667969 187 112.011719 Z M 187 112.011719 " fill-opacity="1" fill-rule="nonzero"/></g><g clip-path="url(#c614701fca)"><path fill="#9cff1e" d="M 22.921875 97.949219 C 19.027344 98.085938 15.0625 99.324219 11.96875 102.035156 C 9.636719 104.261719 8.835938 108.058594 9.632812 111.296875 C 10.09375 113.246094 11.230469 114.863281 12.300781 116.445312 C 13.992188 118.820312 16.171875 120.9375 18.84375 121.777344 C 21.234375 122.480469 23.800781 121.941406 25.976562 120.714844 C 29.207031 118.957031 31.816406 115.980469 33.636719 112.5625 C 34.644531 110.613281 35.429688 108.464844 35.605469 106.214844 C 35.640625 103.550781 34.0625 101.023438 31.878906 99.984375 C 29.140625 98.375 25.984375 97.917969 22.921875 97.949219 Z M 22.921875 97.949219 " fill-opacity="1" fill-rule="nonzero"/></g><path fill="#000000" d="M 201.699219 108.316406 C 201.78125 108.949219 201.910156 109.652344 202.101562 110.289062 C 203.519531 105.011719 206.472656 99.921875 210.894531 96.800781 C 211.464844 96.398438 212.003906 97.335938 211.441406 97.734375 C 207.203125 100.726562 204.378906 105.730469 203.0625 110.824219 C 203.175781 110.785156 203.265625 110.761719 203.289062 110.75 C 203.878906 110.535156 204.449219 110.277344 205.007812 109.992188 C 206.660156 109.140625 208.140625 108.027344 209.4375 106.703125 C 209.046875 106.539062 208.652344 106.371094 208.261719 106.207031 C 208.003906 106.097656 207.941406 105.875 208.003906 105.667969 C 208 105.457031 208.113281 105.261719 208.390625 105.21875 C 209.117188 105.113281 209.902344 105.082031 210.609375 104.894531 C 211.160156 104.75 211.066406 104.847656 211.339844 104.289062 C 211.652344 103.648438 211.988281 103.042969 212.25 102.390625 C 211.484375 102.359375 210.71875 102.328125 209.953125 102.296875 C 209.449219 102.277344 209.179688 101.546875 209.679688 101.292969 C 210.226562 101.011719 210.773438 100.734375 211.316406 100.460938 C 211.710938 100.261719 212.101562 100.066406 212.488281 99.867188 C 213.039062 99.589844 213.097656 99.425781 213.308594 98.832031 C 213.746094 97.59375 214.199219 96.355469 214.734375 95.152344 C 211.398438 95.613281 207.941406 96.53125 205.300781 98.679688 C 202.398438 101.046875 201.234375 104.660156 201.699219 108.316406 " fill-opacity="1" fill-rule="nonzero"/><g clip-path="url(#f388653661)"><path fill="#9cff1e" d="M 205.300781 98.679688 C 207.941406 96.53125 211.398438 95.613281 214.734375 95.152344 C 214.199219 96.355469 213.746094 97.59375 213.308594 98.832031 C 213.097656 99.425781 213.039062 99.589844 212.488281 99.867188 C 212.101562 100.066406 211.710938 100.261719 211.316406 100.460938 C 210.773438 100.734375 210.226562 101.011719 209.679688 101.292969 C 209.179688 101.546875 209.449219 102.277344 209.953125 102.296875 C 210.71875 102.328125 211.484375 102.359375 212.25 102.390625 C 211.988281 103.042969 211.652344 103.648438 211.339844 104.289062 C 211.066406 104.847656 211.160156 104.75 210.609375 104.894531 C 209.902344 105.082031 209.117188 105.113281 208.390625 105.21875 C 208.113281 105.261719 208 105.457031 208.003906 105.667969 C 207.941406 105.875 208.003906 106.097656 208.261719 106.207031 C 208.652344 106.371094 209.046875 106.539062 209.4375 106.703125 C 208.140625 108.027344 206.660156 109.140625 205.007812 109.992188 C 204.449219 110.277344 203.878906 110.535156 203.289062 110.75 C 203.265625 110.761719 203.175781 110.785156 203.0625 110.824219 C 204.378906 105.730469 207.203125 100.726562 211.441406 97.734375 C 212.003906 97.335938 211.464844 96.398438 210.894531 96.800781 C 206.472656 99.921875 203.519531 105.011719 202.101562 110.289062 C 201.910156 109.652344 201.78125 108.949219 201.699219 108.316406 C 201.234375 104.660156 202.398438 101.046875 205.300781 98.679688 Z M 201.117188 102.835938 C 200.507812 104.636719 200.394531 106.582031 200.636719 108.457031 C 200.769531 109.472656 200.929688 110.925781 201.535156 111.804688 C 201.585938 111.875 201.640625 111.933594 201.699219 111.984375 C 201.492188 112.980469 201.339844 113.972656 201.242188 114.953125 C 201.175781 115.648438 202.257812 115.640625 202.324219 114.953125 C 202.414062 114.035156 202.558594 113.097656 202.753906 112.160156 C 203.335938 112.019531 203.960938 111.648438 204.417969 111.457031 C 206.835938 110.421875 208.980469 108.851562 210.738281 106.894531 C 210.941406 106.667969 210.964844 106.203125 210.640625 106.054688 C 210.894531 106.011719 211.136719 105.953125 211.359375 105.871094 C 212.488281 105.433594 213.203125 103.09375 213.519531 102.023438 C 213.625 101.675781 213.34375 101.355469 213 101.339844 C 212.683594 101.328125 212.367188 101.316406 212.054688 101.300781 C 212.683594 101.023438 213.605469 100.734375 213.984375 100.226562 C 214.269531 99.84375 214.351562 99.105469 214.507812 98.652344 C 214.726562 98.019531 214.964844 97.394531 215.214844 96.773438 C 215.484375 96.101562 215.773438 95.425781 216.089844 94.773438 C 216.25 94.445312 216.066406 93.910156 215.625 93.960938 C 209.824219 94.628906 203.175781 96.738281 201.117188 102.835938 " fill-opacity="1" fill-rule="nonzero"/></g><g clip-path="url(#6a1f118006)"><path fill="#9cff1e" d="M 187.753906 119.898438 C 188.867188 120.214844 190.046875 119.160156 190.878906 118.585938 C 191.617188 118.078125 192.332031 117.542969 193.035156 116.992188 C 192.921875 117.460938 192.898438 117.910156 193.101562 118.226562 C 193.574219 118.949219 194.726562 118.648438 195.378906 118.472656 C 196.523438 118.167969 197.53125 117.359375 198.714844 117.472656 C 200.09375 117.605469 201.476562 117.460938 202.800781 117.066406 C 203.464844 116.871094 203.183594 115.828125 202.511719 116.027344 C 201.566406 116.308594 200.605469 116.453125 199.617188 116.441406 C 198.949219 116.433594 198.195312 116.140625 197.566406 116.335938 C 197.203125 116.449219 196.832031 116.789062 196.480469 116.949219 C 195.957031 117.1875 195.40625 117.335938 194.855469 117.496094 C 194.105469 117.710938 194.015625 117.882812 194.238281 117.0625 C 194.378906 116.550781 194.519531 116.039062 194.660156 115.527344 C 194.808594 114.980469 194.148438 114.660156 193.757812 115.003906 C 192.601562 116 191.394531 116.933594 190.132812 117.789062 C 189.8125 118.007812 189.457031 118.296875 189.105469 118.464844 C 188.949219 118.601562 188.765625 118.667969 188.558594 118.667969 C 188.121094 118.839844 188.09375 118.726562 188.480469 118.332031 C 188.765625 117.625 189.535156 116.832031 189.984375 116.265625 C 190.863281 115.15625 191.765625 114.035156 192.75 113.011719 C 193.160156 112.585938 194.046875 111.492188 194.605469 111.484375 C 195.929688 111.464844 194.011719 112.621094 193.632812 112.824219 C 193.019531 113.152344 193.566406 114.085938 194.179688 113.757812 C 195.113281 113.257812 197.917969 111.144531 195.660156 110.390625 C 193.390625 109.636719 191.011719 113.316406 189.851562 114.726562 C 189.164062 115.5625 185.445312 119.246094 187.753906 119.898438 " fill-opacity="1" fill-rule="nonzero"/></g><g clip-path="url(#cb6749d321)"><g clip-path="url(#ffff2a2c27)"><g clip-path="url(#902b59d339)"><g clip-path="url(#87eec70621)"><path fill="#000000" d="M 17.246094 113.207031 C 17.175781 112.984375 17.019531 112.648438 16.710938 112.558594 C 16.351562 112.457031 16.25 112.9375 16.25 112.9375 C 16.25 112.9375 16.289062 112.035156 17.140625 112.53125 C 17.027344 112.332031 16.671875 112.066406 16.3125 111.683594 C 16.695312 111.554688 17.011719 111.6875 17.304688 111.933594 C 17.304688 111.933594 17.066406 111.347656 17.054688 111.007812 C 17.039062 110.6875 17.1875 110.210938 17.40625 109.902344 L 17.941406 111.25 C 17.941406 111.25 17.816406 110.113281 17.820312 109.777344 C 17.820312 109.523438 18.167969 108.855469 18.339844 108.636719 L 18.425781 109.921875 L 18.832031 108.125 C 18.832031 108.125 19.214844 107.433594 19.800781 107.023438 C 19.871094 107.546875 19.871094 108.039062 20.066406 108.398438 C 20.023438 107.808594 20.515625 106.5 20.515625 106.5 C 20.476562 106.414062 22.335938 104.695312 22.335938 104.695312 C 22.222656 105.167969 22.21875 105.628906 22.390625 106.054688 C 22.214844 106.027344 22.925781 104.308594 22.925781 104.308594 C 22.925781 104.308594 23.433594 103.769531 23.839844 103.671875 L 23.628906 104.84375 L 24.496094 103.570312 C 28.75 101.511719 30.9375 103.460938 30.9375 103.460938 C 29.808594 103.390625 29.34375 103.742188 28.152344 104.894531 L 26.230469 105.347656 L 27.78125 105.722656 C 27.367188 105.992188 26.621094 106.582031 26.621094 106.582031 L 25.035156 106.746094 L 26.804688 107.308594 C 26.53125 107.609375 25.457031 108.316406 25.132812 108.386719 C 24.675781 108.484375 22.867188 108.460938 22.867188 108.460938 L 25.328125 108.890625 C 25 109.300781 24.210938 110.046875 23.875 110.179688 C 23.214844 110.441406 21.628906 110.550781 21.628906 110.550781 C 22.171875 110.777344 22.734375 110.878906 23.300781 110.859375 C 22.972656 111.34375 22.171875 112 21.9375 112.207031 L 20.832031 112.226562 L 21.753906 112.847656 C 21.621094 113.035156 20.136719 113.867188 19.734375 113.957031 C 19.734375 113.957031 18.226562 113.371094 17.988281 113.417969 C 18.164062 113.46875 18.203125 113.742188 18.234375 113.992188 C 18.273438 114.300781 18.019531 114.511719 18.019531 114.511719 C 18.019531 114.511719 18.253906 114.195312 17.957031 113.921875 C 17.746094 113.722656 17.539062 113.59375 17.375 113.488281 L 16.464844 114.648438 L 16.535156 114.703125 C 16.554688 114.71875 16.566406 114.742188 16.570312 114.765625 C 16.574219 114.789062 16.566406 114.8125 16.550781 114.832031 C 16.535156 114.851562 16.515625 114.863281 16.492188 114.863281 C 16.46875 114.867188 16.445312 114.859375 16.425781 114.84375 L 16.355469 114.789062 L 15.578125 115.78125 C 15.558594 115.808594 15.335938 115.925781 15.179688 116.089844 C 14.953125 116.328125 14.761719 116.625 14.722656 116.59375 C 14.660156 116.542969 15.058594 115.996094 15.347656 115.59375 C 15.472656 115.421875 15.480469 115.429688 15.480469 115.429688 L 16.132812 114.605469 L 16.085938 114.566406 C 16.066406 114.554688 16.054688 114.53125 16.050781 114.507812 C 16.050781 114.484375 16.054688 114.460938 16.070312 114.441406 C 16.085938 114.421875 16.105469 114.410156 16.132812 114.410156 C 16.15625 114.40625 16.179688 114.414062 16.195312 114.429688 L 16.246094 114.46875 Z M 17.246094 113.207031 " fill-opacity="1" fill-rule="evenodd"/></g></g></g></g><g fill="#ffffff" fill-opacity="1"><g transform="translate(36.998269, 119.498592)"><g><path d="M 6.015625 -21.078125 C 6.785156 -21.078125 7.675781 -21.066406 8.6875 -21.046875 C 9.707031 -21.023438 10.75 -20.992188 11.8125 -20.953125 C 12.875 -20.910156 13.851562 -20.847656 14.75 -20.765625 C 15.65625 -20.679688 16.378906 -20.578125 16.921875 -20.453125 C 16.921875 -19.785156 16.664062 -19.351562 16.15625 -19.15625 C 15.65625 -18.957031 15.09375 -18.859375 14.46875 -18.859375 C 13.695312 -18.859375 12.914062 -18.894531 12.125 -18.96875 C 11.332031 -19.039062 10.519531 -19.117188 9.6875 -19.203125 C 9.664062 -18.617188 9.597656 -17.847656 9.484375 -16.890625 C 9.378906 -15.941406 9.273438 -14.910156 9.171875 -13.796875 C 9.066406 -12.679688 9.015625 -11.570312 9.015625 -10.46875 C 9.015625 -9.414062 9.019531 -8.445312 9.03125 -7.5625 C 9.039062 -6.675781 9.046875 -5.867188 9.046875 -5.140625 C 9.046875 -3.128906 8.972656 -1.703125 8.828125 -0.859375 C 8.679688 -0.015625 8.316406 0.40625 7.734375 0.40625 C 7.484375 0.40625 7.203125 0.363281 6.890625 0.28125 C 6.578125 0.195312 6.359375 0.125 6.234375 0.0625 C 6.234375 -2.175781 6.316406 -4.207031 6.484375 -6.03125 C 6.648438 -7.851562 6.816406 -9.566406 6.984375 -11.171875 C 7.148438 -12.785156 7.234375 -14.410156 7.234375 -16.046875 C 7.234375 -16.585938 7.21875 -17.132812 7.1875 -17.6875 C 7.15625 -18.238281 7.117188 -18.796875 7.078125 -19.359375 L 6.609375 -19.359375 C 6.335938 -19.359375 5.945312 -19.347656 5.4375 -19.328125 C 4.925781 -19.304688 4.375 -19.269531 3.78125 -19.21875 C 3.195312 -19.164062 2.617188 -19.085938 2.046875 -18.984375 C 1.472656 -18.878906 0.988281 -18.734375 0.59375 -18.546875 C 0.445312 -18.898438 0.375 -19.222656 0.375 -19.515625 C 0.375 -20.097656 0.796875 -20.503906 1.640625 -20.734375 C 2.484375 -20.960938 3.941406 -21.078125 6.015625 -21.078125 Z M 6.015625 -21.078125 "/></g></g></g><g fill="#ffffff" fill-opacity="1"><g transform="translate(53.949536, 119.498592)"><g><path d="M 15.890625 -7.046875 C 16.242188 -6.484375 16.5 -5.773438 16.65625 -4.921875 C 16.8125 -4.066406 16.890625 -3.03125 16.890625 -1.8125 C 16.890625 -1.414062 16.882812 -1.054688 16.875 -0.734375 C 16.863281 -0.410156 16.847656 -0.132812 16.828125 0.09375 C 16.640625 0.21875 16.425781 0.304688 16.1875 0.359375 C 15.945312 0.410156 15.742188 0.4375 15.578125 0.4375 C 15.191406 0.4375 14.867188 0.226562 14.609375 -0.1875 C 14.347656 -0.601562 14.195312 -1.476562 14.15625 -2.8125 C 14.132812 -3.425781 14.082031 -4.078125 14 -4.765625 C 13.914062 -5.453125 13.8125 -6.148438 13.6875 -6.859375 C 13.164062 -7.234375 12.484375 -7.484375 11.640625 -7.609375 C 10.796875 -7.734375 9.796875 -7.796875 8.640625 -7.796875 C 8.160156 -7.796875 7.664062 -7.785156 7.15625 -7.765625 C 6.644531 -7.742188 6.128906 -7.710938 5.609375 -7.671875 C 5.296875 -6.648438 5.03125 -5.703125 4.8125 -4.828125 C 4.59375 -3.953125 4.429688 -3.207031 4.328125 -2.59375 C 4.117188 -1.507812 3.878906 -0.726562 3.609375 -0.25 C 3.335938 0.226562 2.9375 0.46875 2.40625 0.46875 C 2.320312 0.46875 2.140625 0.457031 1.859375 0.4375 C 1.578125 0.414062 1.34375 0.363281 1.15625 0.28125 C 1.53125 -1.15625 1.914062 -2.515625 2.3125 -3.796875 C 2.707031 -5.085938 3.097656 -6.316406 3.484375 -7.484375 C 3.054688 -7.421875 2.632812 -7.359375 2.21875 -7.296875 C 1.800781 -7.234375 1.414062 -7.160156 1.0625 -7.078125 C 0.875 -7.429688 1.070312 -7.734375 1.65625 -7.984375 C 2.238281 -8.234375 2.984375 -8.441406 3.890625 -8.609375 C 4.472656 -10.140625 5.078125 -11.570312 5.703125 -12.90625 C 6.328125 -14.238281 6.972656 -15.492188 7.640625 -16.671875 C 8.429688 -18.066406 9.082031 -19.070312 9.59375 -19.6875 C 10.113281 -20.300781 10.566406 -20.6875 10.953125 -20.84375 C 11.335938 -21 11.695312 -21.078125 12.03125 -21.078125 C 12.65625 -19.535156 13.203125 -18.039062 13.671875 -16.59375 C 14.140625 -15.15625 14.554688 -13.660156 14.921875 -12.109375 C 15.285156 -10.554688 15.609375 -8.867188 15.890625 -7.046875 Z M 9.78125 -9.140625 C 10.488281 -9.140625 11.140625 -9.113281 11.734375 -9.0625 C 12.328125 -9.007812 12.851562 -8.921875 13.3125 -8.796875 C 13.019531 -10.078125 12.695312 -11.34375 12.34375 -12.59375 C 11.988281 -13.84375 11.632812 -14.988281 11.28125 -16.03125 C 10.925781 -17.082031 10.613281 -17.972656 10.34375 -18.703125 C 9.457031 -17.304688 8.644531 -15.738281 7.90625 -14 C 7.164062 -12.269531 6.523438 -10.578125 5.984375 -8.921875 C 6.648438 -9.003906 7.3125 -9.0625 7.96875 -9.09375 C 8.625 -9.125 9.226562 -9.140625 9.78125 -9.140625 Z M 9.78125 -9.140625 "/></g></g></g><g fill="#ffffff" fill-opacity="1"><g transform="translate(72.708105, 119.498592)"><g><path d="M 16.140625 -20.796875 C 16.554688 -20.796875 16.84375 -20.597656 17 -20.203125 C 17.15625 -19.804688 17.234375 -19.128906 17.234375 -18.171875 C 17.234375 -17.378906 17.203125 -16.484375 17.140625 -15.484375 C 17.078125 -14.492188 17.015625 -13.332031 16.953125 -12 C 16.890625 -10.664062 16.859375 -9.109375 16.859375 -7.328125 C 16.859375 -4.992188 16.726562 -3.132812 16.46875 -1.75 C 16.207031 -0.375 15.6875 0.3125 14.90625 0.3125 C 14.675781 0.3125 14.4375 0.28125 14.1875 0.21875 C 13.664062 -1.40625 13.09375 -3.082031 12.46875 -4.8125 C 11.84375 -6.550781 11.1875 -8.226562 10.5 -9.84375 C 9.8125 -11.46875 9.117188 -12.925781 8.421875 -14.21875 C 7.734375 -15.519531 7.054688 -16.550781 6.390625 -17.3125 C 5.722656 -18.070312 5.109375 -18.453125 4.546875 -18.453125 L 4.515625 -18.453125 C 4.535156 -18.179688 4.550781 -17.894531 4.5625 -17.59375 C 4.570312 -17.289062 4.578125 -16.972656 4.578125 -16.640625 C 4.578125 -16.015625 4.566406 -15.34375 4.546875 -14.625 C 4.523438 -13.914062 4.492188 -13.175781 4.453125 -12.40625 C 4.367188 -10.351562 4.300781 -8.425781 4.25 -6.625 C 4.195312 -4.820312 4.15625 -3.3125 4.125 -2.09375 C 4.09375 -0.882812 4.046875 -0.113281 3.984375 0.21875 C 3.367188 0.257812 2.90625 0.175781 2.59375 -0.03125 C 2.28125 -0.238281 2.070312 -0.707031 1.96875 -1.4375 C 1.863281 -2.164062 1.8125 -3.265625 1.8125 -4.734375 C 1.8125 -5.085938 1.816406 -5.617188 1.828125 -6.328125 C 1.835938 -7.035156 1.867188 -7.851562 1.921875 -8.78125 C 1.972656 -9.71875 2.050781 -10.703125 2.15625 -11.734375 C 2.257812 -12.765625 2.40625 -13.769531 2.59375 -14.75 L 2.28125 -20.671875 C 2.59375 -20.796875 2.851562 -20.859375 3.0625 -20.859375 C 3.632812 -20.859375 4.035156 -20.472656 4.265625 -19.703125 C 4.722656 -20.328125 5.242188 -20.640625 5.828125 -20.640625 C 6.410156 -20.640625 7.007812 -20.351562 7.625 -19.78125 C 8.238281 -19.207031 8.851562 -18.429688 9.46875 -17.453125 C 10.09375 -16.472656 10.691406 -15.378906 11.265625 -14.171875 C 11.835938 -12.972656 12.363281 -11.726562 12.84375 -10.4375 C 13.320312 -9.15625 13.734375 -7.90625 14.078125 -6.6875 C 14.421875 -5.46875 14.664062 -4.378906 14.8125 -3.421875 C 14.976562 -4.710938 15.09375 -5.851562 15.15625 -6.84375 C 15.21875 -7.832031 15.257812 -8.757812 15.28125 -9.625 C 15.300781 -10.5 15.3125 -11.382812 15.3125 -12.28125 C 15.3125 -13.363281 15.300781 -14.441406 15.28125 -15.515625 C 15.257812 -16.597656 15.226562 -17.59375 15.1875 -18.5 C 15.144531 -19.40625 15.070312 -20.109375 14.96875 -20.609375 C 15.195312 -20.671875 15.414062 -20.71875 15.625 -20.75 C 15.84375 -20.78125 16.015625 -20.796875 16.140625 -20.796875 Z M 16.140625 -20.796875 "/></g></g></g><g fill="#ffffff" fill-opacity="1"><g transform="translate(92.276844, 119.498592)"><g><path d="M 7.671875 0.4375 C 6.003906 0.4375 4.675781 0.0703125 3.6875 -0.65625 C 2.707031 -1.382812 2.003906 -2.367188 1.578125 -3.609375 C 1.148438 -4.859375 0.9375 -6.253906 0.9375 -7.796875 C 0.9375 -9.554688 1.175781 -11.238281 1.65625 -12.84375 C 2.132812 -14.445312 2.800781 -15.863281 3.65625 -17.09375 C 4.519531 -18.332031 5.546875 -19.304688 6.734375 -20.015625 C 7.921875 -20.722656 9.21875 -21.078125 10.625 -21.078125 C 12.039062 -21.078125 13.1875 -20.6875 14.0625 -19.90625 C 14.9375 -19.125 15.570312 -18.085938 15.96875 -16.796875 C 16.375 -15.515625 16.578125 -14.113281 16.578125 -12.59375 C 16.578125 -11.070312 16.40625 -9.546875 16.0625 -8.015625 C 15.726562 -6.492188 15.195312 -5.09375 14.46875 -3.8125 C 13.738281 -2.539062 12.8125 -1.515625 11.6875 -0.734375 C 10.5625 0.046875 9.222656 0.4375 7.671875 0.4375 Z M 8.828125 -1.46875 C 9.878906 -1.46875 10.75 -1.726562 11.4375 -2.25 C 12.125 -2.769531 12.65625 -3.472656 13.03125 -4.359375 C 13.40625 -5.253906 13.671875 -6.269531 13.828125 -7.40625 C 13.984375 -8.539062 14.0625 -9.707031 14.0625 -10.90625 C 14.0625 -12.53125 13.882812 -13.972656 13.53125 -15.234375 C 13.175781 -16.503906 12.617188 -17.507812 11.859375 -18.25 C 11.097656 -18.988281 10.109375 -19.359375 8.890625 -19.359375 C 7.910156 -19.359375 7.082031 -19.0625 6.40625 -18.46875 C 5.726562 -17.875 5.1875 -17.070312 4.78125 -16.0625 C 4.375 -15.0625 4.082031 -13.9375 3.90625 -12.6875 C 3.726562 -11.4375 3.640625 -10.160156 3.640625 -8.859375 C 3.640625 -7.296875 3.796875 -5.960938 4.109375 -4.859375 C 4.421875 -3.753906 4.957031 -2.910156 5.71875 -2.328125 C 6.476562 -1.753906 7.515625 -1.46875 8.828125 -1.46875 Z M 8.828125 -1.46875 "/></g></g></g><g fill="#ffffff" fill-opacity="1"><g transform="translate(109.913642, 119.498592)"><g><path d="M 6.015625 -21.078125 C 6.785156 -21.078125 7.675781 -21.066406 8.6875 -21.046875 C 9.707031 -21.023438 10.75 -20.992188 11.8125 -20.953125 C 12.875 -20.910156 13.851562 -20.847656 14.75 -20.765625 C 15.65625 -20.679688 16.378906 -20.578125 16.921875 -20.453125 C 16.921875 -19.785156 16.664062 -19.351562 16.15625 -19.15625 C 15.65625 -18.957031 15.09375 -18.859375 14.46875 -18.859375 C 13.695312 -18.859375 12.914062 -18.894531 12.125 -18.96875 C 11.332031 -19.039062 10.519531 -19.117188 9.6875 -19.203125 C 9.664062 -18.617188 9.597656 -17.847656 9.484375 -16.890625 C 9.378906 -15.941406 9.273438 -14.910156 9.171875 -13.796875 C 9.066406 -12.679688 9.015625 -11.570312 9.015625 -10.46875 C 9.015625 -9.414062 9.019531 -8.445312 9.03125 -7.5625 C 9.039062 -6.675781 9.046875 -5.867188 9.046875 -5.140625 C 9.046875 -3.128906 8.972656 -1.703125 8.828125 -0.859375 C 8.679688 -0.015625 8.316406 0.40625 7.734375 0.40625 C 7.484375 0.40625 7.203125 0.363281 6.890625 0.28125 C 6.578125 0.195312 6.359375 0.125 6.234375 0.0625 C 6.234375 -2.175781 6.316406 -4.207031 6.484375 -6.03125 C 6.648438 -7.851562 6.816406 -9.566406 6.984375 -11.171875 C 7.148438 -12.785156 7.234375 -14.410156 7.234375 -16.046875 C 7.234375 -16.585938 7.21875 -17.132812 7.1875 -17.6875 C 7.15625 -18.238281 7.117188 -18.796875 7.078125 -19.359375 L 6.609375 -19.359375 C 6.335938 -19.359375 5.945312 -19.347656 5.4375 -19.328125 C 4.925781 -19.304688 4.375 -19.269531 3.78125 -19.21875 C 3.195312 -19.164062 2.617188 -19.085938 2.046875 -18.984375 C 1.472656 -18.878906 0.988281 -18.734375 0.59375 -18.546875 C 0.445312 -18.898438 0.375 -19.222656 0.375 -19.515625 C 0.375 -20.097656 0.796875 -20.503906 1.640625 -20.734375 C 2.484375 -20.960938 3.941406 -21.078125 6.015625 -21.078125 Z M 6.015625 -21.078125 "/></g></g></g><g fill="#ffffff" fill-opacity="1"><g transform="translate(126.864908, 119.498592)"><g><path d="M 15.890625 -7.046875 C 16.242188 -6.484375 16.5 -5.773438 16.65625 -4.921875 C 16.8125 -4.066406 16.890625 -3.03125 16.890625 -1.8125 C 16.890625 -1.414062 16.882812 -1.054688 16.875 -0.734375 C 16.863281 -0.410156 16.847656 -0.132812 16.828125 0.09375 C 16.640625 0.21875 16.425781 0.304688 16.1875 0.359375 C 15.945312 0.410156 15.742188 0.4375 15.578125 0.4375 C 15.191406 0.4375 14.867188 0.226562 14.609375 -0.1875 C 14.347656 -0.601562 14.195312 -1.476562 14.15625 -2.8125 C 14.132812 -3.425781 14.082031 -4.078125 14 -4.765625 C 13.914062 -5.453125 13.8125 -6.148438 13.6875 -6.859375 C 13.164062 -7.234375 12.484375 -7.484375 11.640625 -7.609375 C 10.796875 -7.734375 9.796875 -7.796875 8.640625 -7.796875 C 8.160156 -7.796875 7.664062 -7.785156 7.15625 -7.765625 C 6.644531 -7.742188 6.128906 -7.710938 5.609375 -7.671875 C 5.296875 -6.648438 5.03125 -5.703125 4.8125 -4.828125 C 4.59375 -3.953125 4.429688 -3.207031 4.328125 -2.59375 C 4.117188 -1.507812 3.878906 -0.726562 3.609375 -0.25 C 3.335938 0.226562 2.9375 0.46875 2.40625 0.46875 C 2.320312 0.46875 2.140625 0.457031 1.859375 0.4375 C 1.578125 0.414062 1.34375 0.363281 1.15625 0.28125 C 1.53125 -1.15625 1.914062 -2.515625 2.3125 -3.796875 C 2.707031 -5.085938 3.097656 -6.316406 3.484375 -7.484375 C 3.054688 -7.421875 2.632812 -7.359375 2.21875 -7.296875 C 1.800781 -7.234375 1.414062 -7.160156 1.0625 -7.078125 C 0.875 -7.429688 1.070312 -7.734375 1.65625 -7.984375 C 2.238281 -8.234375 2.984375 -8.441406 3.890625 -8.609375 C 4.472656 -10.140625 5.078125 -11.570312 5.703125 -12.90625 C 6.328125 -14.238281 6.972656 -15.492188 7.640625 -16.671875 C 8.429688 -18.066406 9.082031 -19.070312 9.59375 -19.6875 C 10.113281 -20.300781 10.566406 -20.6875 10.953125 -20.84375 C 11.335938 -21 11.695312 -21.078125 12.03125 -21.078125 C 12.65625 -19.535156 13.203125 -18.039062 13.671875 -16.59375 C 14.140625 -15.15625 14.554688 -13.660156 14.921875 -12.109375 C 15.285156 -10.554688 15.609375 -8.867188 15.890625 -7.046875 Z M 9.78125 -9.140625 C 10.488281 -9.140625 11.140625 -9.113281 11.734375 -9.0625 C 12.328125 -9.007812 12.851562 -8.921875 13.3125 -8.796875 C 13.019531 -10.078125 12.695312 -11.34375 12.34375 -12.59375 C 11.988281 -13.84375 11.632812 -14.988281 11.28125 -16.03125 C 10.925781 -17.082031 10.613281 -17.972656 10.34375 -18.703125 C 9.457031 -17.304688 8.644531 -15.738281 7.90625 -14 C 7.164062 -12.269531 6.523438 -10.578125 5.984375 -8.921875 C 6.648438 -9.003906 7.3125 -9.0625 7.96875 -9.09375 C 8.625 -9.125 9.226562 -9.140625 9.78125 -9.140625 Z M 9.78125 -9.140625 "/></g></g></g><g fill="#ffffff" fill-opacity="1"><g transform="translate(145.623478, 119.498592)"><g><path d="M 9.9375 -21.078125 C 11.351562 -21.078125 12.664062 -20.703125 13.875 -19.953125 C 15.09375 -19.203125 16.070312 -18.0625 16.8125 -16.53125 C 17.550781 -15.007812 17.921875 -13.070312 17.921875 -10.71875 C 17.921875 -8.457031 17.554688 -6.488281 16.828125 -4.8125 C 16.097656 -3.144531 14.988281 -1.851562 13.5 -0.9375 C 12.019531 -0.0195312 10.128906 0.4375 7.828125 0.4375 C 6.992188 0.4375 6.222656 0.382812 5.515625 0.28125 C 4.804688 0.175781 4.210938 0.0703125 3.734375 -0.03125 C 3.523438 0.257812 3.269531 0.40625 2.96875 0.40625 C 2.882812 0.40625 2.703125 0.394531 2.421875 0.375 C 2.140625 0.351562 1.9375 0.300781 1.8125 0.21875 C 1.8125 -0.15625 1.847656 -0.769531 1.921875 -1.625 C 1.992188 -2.476562 2.085938 -3.445312 2.203125 -4.53125 C 2.316406 -5.625 2.445312 -6.722656 2.59375 -7.828125 C 2.738281 -8.941406 2.894531 -9.957031 3.0625 -10.875 C 3.09375 -11.539062 3.117188 -12.21875 3.140625 -12.90625 C 3.160156 -13.59375 3.171875 -14.21875 3.171875 -14.78125 C 3.191406 -15.132812 3.203125 -15.46875 3.203125 -15.78125 C 3.203125 -16.101562 3.203125 -16.421875 3.203125 -16.734375 C 3.203125 -17.484375 3.191406 -18.1875 3.171875 -18.84375 C 3.148438 -19.5 3.128906 -20.085938 3.109375 -20.609375 C 3.710938 -20.753906 4.210938 -20.828125 4.609375 -20.828125 C 4.898438 -20.828125 5.148438 -20.703125 5.359375 -20.453125 C 5.566406 -20.203125 5.679688 -19.785156 5.703125 -19.203125 C 6.203125 -19.804688 6.800781 -20.269531 7.5 -20.59375 C 8.195312 -20.914062 9.007812 -21.078125 9.9375 -21.078125 Z M 8.921875 -0.875 C 10.203125 -0.875 11.316406 -1.175781 12.265625 -1.78125 C 13.210938 -2.382812 13.953125 -3.382812 14.484375 -4.78125 C 15.015625 -6.1875 15.300781 -8.070312 15.34375 -10.4375 C 15.382812 -13.476562 14.835938 -15.738281 13.703125 -17.21875 C 12.566406 -18.707031 11.109375 -19.453125 9.328125 -19.453125 C 7.660156 -19.453125 6.410156 -18.785156 5.578125 -17.453125 C 5.535156 -16.929688 5.488281 -16.335938 5.4375 -15.671875 C 5.382812 -15.015625 5.332031 -14.351562 5.28125 -13.6875 C 5.226562 -13.019531 5.179688 -12.425781 5.140625 -11.90625 C 5.097656 -11.382812 5.054688 -11 5.015625 -10.75 C 4.992188 -8.71875 4.9375 -7 4.84375 -5.59375 C 4.75 -4.1875 4.617188 -3.039062 4.453125 -2.15625 C 4.992188 -1.800781 5.644531 -1.5 6.40625 -1.25 C 7.164062 -1 8.003906 -0.875 8.921875 -0.875 Z M 8.921875 -0.875 "/></g></g></g><g fill="#ffffff" fill-opacity="1"><g transform="translate(164.631336, 119.498592)"><g><path d="M 7.671875 0.4375 C 6.003906 0.4375 4.675781 0.0703125 3.6875 -0.65625 C 2.707031 -1.382812 2.003906 -2.367188 1.578125 -3.609375 C 1.148438 -4.859375 0.9375 -6.253906 0.9375 -7.796875 C 0.9375 -9.554688 1.175781 -11.238281 1.65625 -12.84375 C 2.132812 -14.445312 2.800781 -15.863281 3.65625 -17.09375 C 4.519531 -18.332031 5.546875 -19.304688 6.734375 -20.015625 C 7.921875 -20.722656 9.21875 -21.078125 10.625 -21.078125 C 12.039062 -21.078125 13.1875 -20.6875 14.0625 -19.90625 C 14.9375 -19.125 15.570312 -18.085938 15.96875 -16.796875 C 16.375 -15.515625 16.578125 -14.113281 16.578125 -12.59375 C 16.578125 -11.070312 16.40625 -9.546875 16.0625 -8.015625 C 15.726562 -6.492188 15.195312 -5.09375 14.46875 -3.8125 C 13.738281 -2.539062 12.8125 -1.515625 11.6875 -0.734375 C 10.5625 0.046875 9.222656 0.4375 7.671875 0.4375 Z M 8.828125 -1.46875 C 9.878906 -1.46875 10.75 -1.726562 11.4375 -2.25 C 12.125 -2.769531 12.65625 -3.472656 13.03125 -4.359375 C 13.40625 -5.253906 13.671875 -6.269531 13.828125 -7.40625 C 13.984375 -8.539062 14.0625 -9.707031 14.0625 -10.90625 C 14.0625 -12.53125 13.882812 -13.972656 13.53125 -15.234375 C 13.175781 -16.503906 12.617188 -17.507812 11.859375 -18.25 C 11.097656 -18.988281 10.109375 -19.359375 8.890625 -19.359375 C 7.910156 -19.359375 7.082031 -19.0625 6.40625 -18.46875 C 5.726562 -17.875 5.1875 -17.070312 4.78125 -16.0625 C 4.375 -15.0625 4.082031 -13.9375 3.90625 -12.6875 C 3.726562 -11.4375 3.640625 -10.160156 3.640625 -8.859375 C 3.640625 -7.296875 3.796875 -5.960938 4.109375 -4.859375 C 4.421875 -3.753906 4.957031 -2.910156 5.71875 -2.328125 C 6.476562 -1.753906 7.515625 -1.46875 8.828125 -1.46875 Z M 8.828125 -1.46875 "/></g></g></g><g fill="#ffffff" fill-opacity="1"><g transform="translate(182.271006, 119.498592)"><g/></g></g></svg>